/* XPM */
static const char * slst_xpm[] = {
"32 32 2 1",
" 	c None",
".	c #ED2828",
"                                ",
"                                ",
"                                ",
"         .....   ..             ",
"        ..   .   ..             ",
"        ..       ..             ",
"        ....     ..             ",
"         .....   ..             ",
"            ...  ..             ",
"             ..  ..             ",
"        .    ..  ..             ",
"        ......   .......        ",
"                                ",
"                                ",
"                                ",
"                                ",
"                                ",
"                                ",
"                                ",
"                                ",
"         .....  ........        ",
"        ..   .     ..           ",
"        ..         ..           ",
"        ....       ..           ",
"         .....     ..           ",
"            ...    ..           ",
"             ..    ..           ",
"        .    ..    ..           ",
"        ......     ..           ",
"                                ",
"                                ",
"                                "};
